<svg width="32" height="32" viewBox="0 0 32 32" fill="none" xmlns="http://www.w3.org/2000/svg">
<path d="M15.2742 4.48261C21.6278 4.08299 27.1032 8.90764 27.5065 15.261C27.9097 21.6143 23.0882 27.0925 16.7351 27.4993C10.3768 27.9065 4.89328 23.0802 4.48975 16.7218C4.08618 10.3633 8.91556 4.88255 15.2742 4.48261ZM16.1146 21.2256C16.3278 21.7343 16.4146 21.7209 16.7682 22.0694C19.0133 24.2824 22.6652 21.445 21.3791 18.7715C20.6944 17.348 18.5826 15.877 17.5444 14.6289C17.0917 14.0846 16.4395 13.8075 15.7275 13.9246C15.0006 13.9868 14.6836 14.4125 14.1911 14.8939L12.8285 16.2448C12.2753 16.7965 11.6499 17.4035 11.1185 17.9588C10.6874 18.4093 10.2773 19.5501 10.3444 20.1754C10.4111 20.7971 10.8422 21.7021 11.3602 22.1076C12.0632 22.6579 12.6531 22.9169 13.5725 22.8458C14.3603 22.785 15.0518 22.173 15.5886 21.6368C15.7342 21.4913 15.8329 21.1714 16.0275 21.1352C16.0715 21.1689 16.0868 21.1761 16.1146 21.2256ZM24.3046 18.1897C24.888 17.9987 25.2361 17.469 25.5254 16.9554C25.8015 16.4652 25.7531 15.8266 25.602 15.3069C25.4382 14.9744 25.1579 14.6242 24.9285 14.3387C24.7313 14.0934 24.451 13.9104 24.2548 13.6844C23.8252 13.1896 23.3282 12.795 22.9004 12.3007C22.7958 12.1797 22.5483 11.916 22.396 11.8848C22.1512 12.1757 21.9029 13.4023 21.7594 13.8598C21.4053 14.9885 20.7506 16.211 21.4858 17.3276C22.0582 18.1969 23.3449 18.6722 24.3046 18.1897ZM7.70681 18.1899C8.97043 18.702 10.1799 18.0708 10.726 16.85C11.1582 15.8835 10.43 14.5654 10.1994 13.6343C10.0649 13.1383 9.8985 12.5569 9.73171 12.072C9.70462 11.9932 9.65046 11.9363 9.5784 11.893C9.21162 12.14 9.05793 12.3774 8.7554 12.6767C8.37234 13.0136 8.05665 13.3703 7.71253 13.742C7.50462 13.9665 7.26381 14.1109 7.04065 14.3716C6.3209 15.2127 5.93962 16.271 6.62781 17.2705C6.89815 17.6632 7.21209 18.0376 7.70681 18.1899ZM20.4383 13.291C21.3666 12.4563 21.4838 11.0591 20.6609 10.0775C20.2785 9.62139 19.5885 9.26942 19.0018 9.27439C18.2132 9.27048 17.4208 9.26333 16.6322 9.28298C16.5631 9.43242 16.5748 10.2288 16.5868 10.4224C16.625 11.0381 16.5078 11.8886 16.7248 12.467C17.1504 13.6014 18.4747 14.237 19.6246 13.8451C19.8513 13.7678 20.2613 13.457 20.4383 13.291ZM13.0062 13.9397C13.1286 13.9415 13.4218 13.9481 13.5316 13.9249C13.9301 13.8404 14.4791 13.495 14.7678 13.2148C15.3036 12.6948 15.4108 12.0181 15.4159 11.3087C15.4172 10.6344 15.4142 9.96005 15.4068 9.2858C14.7623 9.24155 13.918 9.26761 13.2557 9.26517C12.4947 9.28989 12.1084 9.3873 11.5126 9.90342C10.9803 10.3645 10.8001 11.0587 10.798 11.7362C10.7945 12.9096 11.8609 13.9154 13.0062 13.9397Z" fill="#FEFE70"/>
</svg>
