<svg width="40" height="40" viewBox="0 0 40 40" fill="none" xmlns="http://www.w3.org/2000/svg">
<path d="M18.7157 17.4209C19.7646 17.3821 21.7614 17.2526 22.2217 18.3898C22.5956 19.3135 22.0562 20.0596 21.2153 20.397C21.4648 20.6304 22.7313 22.3016 22.7594 22.5532C22.58 22.7084 22.0333 22.6578 21.7983 22.6348C21.3481 22.3528 20.8836 21.2589 20.5078 20.8623C20.238 20.5776 20.104 20.6115 19.7337 20.6142C19.7413 20.6697 19.7464 20.7256 19.749 20.7815C19.7661 21.1731 19.8452 22.1949 19.6287 22.5428C19.54 22.6852 18.8878 22.6869 18.7368 22.5361C18.6282 22.2781 18.6113 17.7831 18.7157 17.4209ZM19.7004 19.8096C20.1259 19.7978 20.6854 19.8328 21.0402 19.6185C21.1949 19.4373 21.2503 19.3164 21.3351 19.0922C21.2708 18.7546 21.2348 18.6703 21.0225 18.3856C20.4311 18.2233 20.2936 18.3147 19.7665 18.2563C19.7318 18.3221 19.7395 19.5544 19.7004 19.8096Z" fill="black"/>
<path d="M12.5326 17.421C12.7761 17.3866 13.2206 17.3882 13.4356 17.5206C13.7061 17.8702 15.3805 21.9979 15.4871 22.472C15.3153 22.6951 14.8074 22.6763 14.5774 22.5722C14.3529 22.3585 14.1077 21.6236 14.0375 21.3149C13.8497 21.3255 13.6528 21.3262 13.464 21.3299C12.9772 21.3334 12.3392 21.3532 11.8698 21.3067C11.7696 21.6773 11.6431 22.2201 11.393 22.5123C11.2529 22.676 10.5766 22.6727 10.4365 22.5327C10.4696 22.3075 10.5775 22.0283 10.6637 21.8152C11.2213 20.4352 11.7667 19.0488 12.3443 17.6773C12.381 17.5902 12.4662 17.4893 12.5326 17.421ZM12.1209 20.5641C12.4541 20.5427 12.7235 20.5219 13.0556 20.5393L13.7439 20.5527C13.6526 20.3303 12.9878 18.5465 12.9066 18.493C12.7659 19.0058 12.3868 20.1089 12.1209 20.5641Z" fill="black"/>
<path d="M25.6455 17.4401C26.272 17.4205 29.0859 17.3436 29.5285 17.4506C29.6187 17.5506 29.5962 17.5498 29.6117 17.6834C29.7102 18.5326 28.5639 18.3027 27.976 18.2792C28.0035 18.7057 27.9754 19.1421 27.9766 19.5704C27.978 20.1233 27.9849 20.6747 27.9771 21.2277C27.9795 21.5324 28.0081 22.2151 27.9327 22.5113C27.8896 22.6808 27.2203 22.6534 27.0378 22.5828C26.8398 22.3762 26.919 18.8036 26.9223 18.2741C26.5645 18.3111 25.6809 18.3651 25.3982 18.1714C25.2875 17.9952 25.3413 17.775 25.3824 17.5568C25.5009 17.4401 25.4616 17.4743 25.6455 17.4401Z" fill="black"/>
<path d="M26.8408 8.56622C27.8333 8.55864 29.2424 8.42555 30.0888 8.90622C30.7048 9.25598 31.1572 9.8354 31.3472 10.5178C31.5018 11.0854 31.6137 12.9385 31.3354 13.5075C31.2649 13.6516 31.1455 13.6808 31.0006 13.7191C30.9626 13.7026 30.9257 13.6856 30.8908 13.6629C30.5117 13.4163 30.7349 11.2995 30.5935 10.7238C30.4962 10.3271 30.3078 10.0033 29.992 9.74192C28.8992 8.83711 27.1218 9.62059 26.5037 9.22918C26.3989 9.16282 26.3427 9.09223 26.3159 8.96833C26.3521 8.67 26.5829 8.59223 26.8408 8.56622Z" fill="black"/>
<path d="M30.9488 26.323C31.1694 26.3476 31.2002 26.3858 31.3869 26.5078C31.4995 27.0655 31.4901 27.8719 31.4765 28.4586C31.4553 29.3797 31.2786 30.0643 30.6032 30.7151C29.6421 31.6411 28.2534 31.508 26.9823 31.4636C26.6723 31.4353 26.4042 31.4003 26.29 31.0531C26.4022 30.4685 28.4842 30.8021 29.0778 30.7C31.6234 30.2619 30.117 27.0253 30.9488 26.323Z" fill="black"/>
<path d="M11.0717 8.56961C11.4681 8.54332 13.3058 8.49242 13.4812 8.67707C14.1047 9.42887 12.8404 9.31422 12.5046 9.30418C10.402 9.24152 9.31263 9.35625 9.33451 11.8441C9.34068 12.202 9.4163 13.3875 9.19275 13.5672C8.47927 14.0742 8.58818 13.0518 8.55712 12.7084C8.38318 10.7837 8.69377 8.78246 11.0717 8.56961Z" fill="black"/>
<path d="M8.83183 26.3184C8.94226 26.3334 9.16659 26.381 9.20237 26.4721C9.66917 27.838 8.83413 28.8434 9.81917 30.1229C10.6634 31.2194 13.0775 30.3441 13.6348 30.9388C13.7217 31.1705 13.5857 31.3046 13.3937 31.4296C13.1216 31.506 11.5172 31.4864 11.189 31.4714C10.405 31.4157 9.71448 31.1286 9.18745 30.5285C8.32534 29.5468 8.57171 28.1247 8.5489 26.9207C8.54386 26.6555 8.63316 26.4841 8.83183 26.3184Z" fill="black"/>
</svg>
