<svg width="22" height="24" viewBox="0 0 22 24" fill="none" xmlns="http://www.w3.org/2000/svg">
<g clip-path="url(#clip0_31_1602)">
<path d="M14.9669 13.2417C15.5446 13.2533 16.0333 13.6157 16.5443 13.8308C17.1049 14.0668 17.6274 14.3487 18.1726 14.6032L19.8987 15.3935C20.252 15.5591 20.8989 15.8076 21.0717 16.165C21.4847 17.0195 20.8622 18.1248 20.0996 18.5594C19.9775 18.6725 19.5345 18.7079 19.3821 18.6395C18.894 18.4204 18.4629 18.0577 18.0189 17.7585C16.9938 17.0646 15.9951 16.3318 14.9719 15.6343C14.7032 15.4511 14.0799 15.0528 14.0159 14.735C13.8952 14.1348 14.3324 13.3488 14.9669 13.2417Z" fill="#E1C15E"/>
<path d="M19.52 5.28789C19.6791 5.27765 19.7468 5.28669 19.9149 5.32214C20.8673 5.52304 21.7496 7.44798 20.8085 8.07783C20.4847 8.29457 19.6929 8.6471 19.2916 8.83423L17.0685 9.89099C16.5288 10.146 16.1441 10.2923 15.599 10.5968C14.6165 11.1002 13.7005 9.98588 14.0984 9.06418C14.2436 8.8847 14.5674 8.62193 14.7466 8.49764C15.482 7.98777 16.2406 7.48652 16.9686 6.97029L18.5834 5.81903C18.9901 5.53357 19.009 5.44482 19.52 5.28789Z" fill="#E1C15E"/>
<path d="M2.14297 5.28869C2.69963 5.16127 3.35314 5.87915 3.77189 6.15453C5.0092 6.96823 6.20186 7.85666 7.4304 8.68484C7.87363 8.98362 7.93361 9.42104 7.79955 9.91273C7.63006 10.5343 7.16413 10.8485 6.51437 10.6563C6.3984 10.6417 5.50362 10.1862 5.33205 10.1108C4.47658 9.73529 3.64999 9.34731 2.79728 8.94542C2.22556 8.6389 1.45099 8.37013 0.956781 7.95344C0.618518 7.66824 0.736195 6.71519 0.940193 6.35902C1.2467 5.82389 1.55649 5.48175 2.14297 5.28869Z" fill="#E1C15E"/>
<path d="M6.69353 13.24C7.60236 13.197 8.01242 14.121 7.80483 14.8877C7.73196 15.157 6.5475 15.8662 6.27343 16.0758C5.27763 16.837 4.20508 17.514 3.19076 18.2498C2.78623 18.5426 2.46436 18.7989 1.94802 18.6272C1.35826 18.3673 0.912748 17.8019 0.787414 17.1836C0.704996 16.7262 0.705026 16.068 1.18074 15.8231C2.35193 15.226 3.55643 14.7133 4.73435 14.128C5.17439 13.9093 5.66916 13.7059 6.11118 13.4781C6.24861 13.4073 6.55623 13.2696 6.69353 13.24Z" fill="#E1C15E"/>
<path d="M10.7127 0.439019C11.3593 0.364694 11.9257 0.529526 12.3469 1.05301C12.6101 1.3801 12.4825 2.01391 12.4887 2.41912C12.4929 2.69466 12.3955 3.03171 12.3794 3.32162C12.3223 4.35014 12.216 5.37707 12.1097 6.40151C12.0299 7.12938 12.2246 7.97464 11.3168 8.21898C10.7611 8.34383 10.0613 8.16254 9.90802 7.53704C9.74343 6.86534 9.79227 6.16333 9.7439 5.47871C9.72614 5.2273 9.6721 4.98229 9.64632 4.73185C9.59158 3.70926 9.45945 2.69838 9.45038 1.67209C9.44525 1.4115 9.48379 1.14786 9.67096 0.949743C9.93793 0.667149 10.3263 0.466609 10.7127 0.439019Z" fill="#E1C15E"/>
<path d="M12.2835 19.1853C12.3134 19.6273 12.326 20.1455 12.38 20.5792C12.4667 21.1982 12.53 21.813 12.5322 22.439C12.5518 22.7499 12.2569 23.0842 12.0002 23.247C11.3911 23.6331 10.1964 23.6022 9.68917 23.0374C9.61071 22.9499 9.48481 22.7662 9.47113 22.6556C9.4287 22.3118 9.46028 21.9294 9.47755 21.5839C9.52376 20.7982 9.57967 20.0129 9.64524 19.2284C9.66494 19.0175 9.71216 18.8014 9.72653 18.5928C9.76572 17.9087 9.75943 17.2399 9.88932 16.5671C10.0382 15.796 10.4935 15.6932 11.1965 15.7266C11.4493 15.7386 11.7087 15.8935 11.8643 16.0924C11.9225 16.1667 11.9348 16.2421 12.0056 16.3196C12.0842 16.65 12.0738 17.0899 12.1024 17.4313C12.1493 17.9905 12.1863 18.6351 12.2835 19.1853Z" fill="#E1C15E"/>
</g>
<defs>
<clipPath id="clip0_31_1602">
<rect width="22" height="23.9766" fill="white"/>
</clipPath>
</defs>
</svg>
