<svg width="88" height="41" overflow="visible" style="display: block;" viewBox="0 0 88 40.3019" fill="none" xmlns="http://www.w3.org/2000/svg">
<g id="image 33 [Vectorized]" clip-path="url(#clip0_0_33)">
<path id="Vector" d="M41.9572 15.7488C44.0312 15.7272 48.1204 15.2014 48.1308 18.2777C48.1359 19.6219 47.3519 20.3484 46.18 20.7893C46.9306 21.5186 48.2902 23.6311 48.9896 24.5912C48.3944 24.582 47.7986 24.5768 47.2029 24.5751C46.4603 24.2965 45.4622 22.0591 44.8284 21.442C44.4301 21.0535 44.083 21.1421 43.5149 21.1473C43.5344 22.2703 43.4763 23.4855 43.5298 24.5935C42.968 24.5705 42.3497 24.5843 41.7837 24.5855C41.828 23.9028 41.7996 22.9202 41.8 22.2203L41.8002 18.0241C41.7999 17.6228 41.7649 16.0896 41.8067 15.8121L41.9572 15.7488ZM43.5108 19.9471C44.3956 19.946 45.2458 20.049 45.9705 19.5137C46.3296 19.0774 46.4891 18.7804 46.4223 18.1953C46.2704 16.8519 44.4969 17.054 43.512 17.0523C43.5218 18.0172 43.5212 18.9824 43.5108 19.9471Z" fill="var(--fill-0, black)"/>
<path id="Vector_2" d="M30.8246 15.7341C31.4113 15.7294 31.998 15.7354 32.5845 15.7524C32.928 16.774 33.5369 18.1597 33.9599 19.1983C34.6872 20.9988 35.4255 22.7953 36.1746 24.5866C33.892 24.6241 34.3154 24.4848 33.5443 22.424L32.358 22.4131C31.4998 22.4217 30.6414 22.4171 29.7833 22.4004C28.9969 24.4462 29.5704 24.5786 27.17 24.5941L29.612 18.5834C29.8896 17.9001 30.4969 16.2902 30.8246 15.7341ZM30.2297 21.24L31.7105 21.2394L33.0694 21.2498C32.9154 20.7663 31.8348 17.7498 31.6386 17.4315C31.2018 18.7128 30.732 19.9828 30.2297 21.24Z" fill="var(--fill-0, black)"/>
<path id="Vector_3" d="M53.6866 15.7484L60.8398 15.7436C60.8191 16.2606 60.8116 16.6292 60.8381 17.1437C60.0903 17.0751 58.8436 17.114 58.0481 17.1113C58.078 18.6827 58.0538 20.3294 58.0544 21.9066L58.0578 24.5907C57.5001 24.57 56.879 24.5844 56.3166 24.5849C56.3954 22.2007 56.331 19.5287 56.3362 17.1192C55.505 17.1025 54.3664 17.0805 53.5536 17.1422C53.5513 16.761 53.5306 16.1733 53.5818 15.8155L53.6866 15.7484Z" fill="var(--fill-0, black)"/>
<path id="Vector_4" d="M16.8677 22.275C16.9425 22.1368 17.0204 22.0004 17.1012 21.8657L19.5401 17.9232C19.9572 17.2506 20.3628 16.5396 20.8418 15.9127C20.9794 15.7326 21.3995 15.6767 21.5889 15.7966C21.649 16.0607 21.6392 24.3069 21.5672 24.532C21.3751 24.643 21.2446 24.6039 21.0684 24.5009C20.8522 24.1158 20.9905 23.3905 20.9873 22.9196L20.9796 17.9678L20.9973 16.8463C20.2695 17.7596 17.5363 22.6612 17.0906 22.9686C16.9707 23.0515 16.8553 23.071 16.7142 23.0325C16.4191 22.9513 13.0377 17.4242 12.6269 16.7721L12.6278 22.0545C12.628 22.6025 12.6695 24.0571 12.5913 24.5078C12.4474 24.616 12.2696 24.5861 12.0773 24.5866C11.9987 24.4767 11.9744 24.3362 11.9769 24.2021C12.0305 21.3862 11.9302 18.5547 11.9845 15.7407C12.3064 15.7363 12.629 15.6872 12.8316 15.9854C13.2799 16.6455 13.7004 17.3272 14.1298 18.0003L16.8677 22.275Z" fill="var(--fill-0, black)"/>
<path id="Vector_5" d="M63.2856 31.3738C64.4604 31.3709 64.0886 32.8007 64.0972 33.6394C64.1168 35.5637 64.3096 37.4834 62.8101 38.9547C61.4724 40.2671 60.1208 40.2481 58.3698 40.2487L55.9585 40.2446C54.8861 40.2032 55.2263 39.1936 55.578 39.1181C57.5161 38.7089 60.0109 39.6374 61.6974 38.3278C63.5337 36.9014 62.6996 34.1839 62.8867 32.1969C62.9275 31.76 62.9586 31.6455 63.2856 31.3738Z" fill="var(--fill-0, black)"/>
<path id="Vector_6" d="M56.1894 0.0892822C57.3625 0.0831807 58.558 0.0639573 59.726 0.101027C60.99 0.141205 62.1355 0.61799 62.9811 1.56845C64.1824 2.91822 64.1156 4.33983 64.0984 6.02979C64.0949 6.73619 64.1352 7.44598 64.103 8.15186C64.0719 8.8273 63.8209 9.02047 63.1837 8.88008C63.1106 8.8155 62.9886 8.70555 62.9707 8.61311C62.6374 6.88205 63.2787 4.75899 62.5615 3.11065C61.5265 0.733861 58.7382 1.37136 56.6873 1.29284C56.164 1.27281 55.4272 1.4371 55.1774 0.796893C55.1797 0.225475 55.7392 0.104363 56.1894 0.0892822Z" fill="var(--fill-0, black)"/>
<path id="Vector_7" d="M24.4257 31.3681C24.7284 31.3842 25.0427 31.4469 25.1099 31.8142C25.4491 33.6665 24.6634 36.045 25.7848 37.6935C27.2094 39.7876 30.1387 38.793 32.2381 39.037C32.8423 39.1073 33.1528 39.8792 32.4116 40.2349C30.92 40.3051 29.0356 40.2976 27.5617 40.1543C26.098 40.0116 24.3548 38.3946 24.1412 36.932C23.9061 35.3231 23.9294 33.4311 24.0579 31.8038C24.0751 31.5862 24.2601 31.4711 24.4257 31.3681Z" fill="var(--fill-0, black)"/>
<path id="Vector_8" d="M28.6797 0.0894159C29.4037 0.0831416 32.2124 -0.119651 32.6754 0.327375C32.7796 0.427993 32.8452 0.535694 32.8451 0.684664C32.8448 0.858501 32.7587 1.03147 32.6335 1.14913C32.3588 1.40735 31.5488 1.29102 31.1879 1.28619C29.5568 1.26449 27.3636 0.98174 26.118 2.24022C25.1115 3.25705 25.1618 4.55921 25.1775 5.88118C25.1673 6.61348 25.2823 8.02709 25.0813 8.65181C24.4334 9.39061 23.9319 8.60766 23.9817 8.01172C24.1676 5.78943 23.4483 3.27115 25.161 1.48973C26.2274 0.380566 27.2307 0.154288 28.6797 0.0894159Z" fill="var(--fill-0, black)"/>
<path id="Vector_9" d="M2.81969 15.7891C3.64899 15.7343 5.50213 15.8313 6.03711 16.5425C6.06066 16.7458 6.07585 16.6763 5.96148 16.8682C5.76018 17.2203 5.30441 16.7937 5.04434 16.647C4.12232 16.1246 2.23498 16.1126 1.55644 17.0342C-0.256418 19.497 4.47811 19.55 5.66618 20.5331C6.76216 21.4397 6.62741 22.5018 5.82448 23.5431C5.21133 24.338 4.1648 24.5026 3.25532 24.5774C2.4422 24.5774 1.58631 24.5256 0.877898 24.0985C0.544902 23.8982 0.133794 23.7681 0.0312766 23.4078C0.332498 22.6842 1.32423 23.7111 1.86854 23.874C3.45943 24.3501 5.96447 23.8424 5.63044 21.7103C5.47813 20.7386 3.82812 20.4474 3.05811 20.2194C1.64324 19.8556 0.0346162 19.2933 0.550716 17.4391C0.841749 16.3395 1.81604 15.9913 2.81969 15.7891Z" fill="var(--fill-0, black)"/>
<path id="Vector_10" d="M72.6951 15.745C73.3093 15.771 77.3052 15.664 77.505 15.8421C77.5142 15.9924 77.5361 16.1077 77.4848 16.2478C77.2885 16.3283 73.7485 16.2958 73.2563 16.2967L73.2569 19.9898C73.9989 19.9691 76.2415 19.9299 76.8971 20.0025C76.9846 20.1372 76.934 20.3691 76.9178 20.5418C76.7457 20.5637 75.9991 20.5464 75.7781 20.5458L73.2569 20.5424L73.2655 22.8385C73.2707 23.2852 73.368 24.1803 73.1285 24.5395C72.915 24.6782 72.8269 24.722 72.6721 24.4957C72.6082 24.0134 72.6421 23.0648 72.6416 22.5496L72.6467 18.5674C72.6456 18.21 72.5823 15.9005 72.6951 15.745Z" fill="var(--fill-0, black)"/>
<path id="Vector_11" d="M87.3378 15.7575C87.5635 15.737 87.8409 15.7312 88.0723 15.7198C87.4996 16.5724 86.9032 17.6162 86.3662 18.5055C85.8855 19.276 85.2875 20.1366 84.9668 20.9925C84.7326 21.6171 85.0307 24.2839 84.8149 24.5688C84.6243 24.6356 84.2634 24.6218 84.2508 24.3783C84.1949 23.257 84.3147 22.0822 84.2018 20.9637C84.1805 20.7531 83.6826 19.9765 83.5393 19.7423L81.9063 17.0818C81.7342 16.7994 81.2374 16.0103 81.1349 15.7296L81.8372 15.7682C82.7375 17.153 83.7546 18.9732 84.6054 20.4284C84.8932 19.752 86.8595 16.4172 87.3378 15.7575Z" fill="var(--fill-0, black)"/>
<path id="Vector_12" d="M66.4355 15.7295C66.6761 15.7283 66.7676 15.7111 66.9875 15.7917C67.0405 15.9405 67.0612 23.9558 67.0077 24.5838C66.7527 24.5924 66.6502 24.6131 66.4136 24.5371C66.3422 23.7618 66.314 16.1832 66.4355 15.7295Z" fill="var(--fill-0, black)"/>
</g>
<defs>
<clipPath id="clip0_0_33">
<rect width="88" height="40.3019" fill="white"/>
</clipPath>
</defs>
</svg>
