<svg width="36" height="40" viewBox="0 0 36 40" fill="none" xmlns="http://www.w3.org/2000/svg">
<g clip-path="url(#clip0_73_9029)">
<path d="M22.1194 0.762908C23.4816 0.63388 25.5909 1.6421 26.9006 1.89424C28.3528 2.1738 32.2497 6.17623 31.8598 7.47754C31.669 7.59791 31.4745 7.67021 31.2418 7.60497C29.8768 7.22226 28.6786 6.53802 27.2371 6.29427C26.3036 6.13643 25.9077 6.54348 25.1628 7.07441C24.8245 7.94398 24.6267 8.788 24.8645 9.71627C25.3554 11.6323 26.3346 13.3717 27.2459 15.1131C28.8491 16.0494 30.2858 16.6524 32.0742 17.1781C32.6613 17.4605 34.5127 17.4508 34.8876 17.7972C36.4098 19.2041 33.4451 19.9985 32.6453 20.0515C30.118 20.2189 27.885 19.8404 25.4591 19.4412C22.7798 19.0056 20.1124 18.4987 17.4599 17.9213C13.4269 17.051 5.67985 15.0941 1.75965 16.157C2.56644 17.6489 4.1899 18.1463 5.68734 18.6509C5.84526 18.9852 5.90071 19.1005 5.63165 19.3797C4.4616 19.8211 1.01304 17.8764 0.695172 16.5764C0.368295 15.2394 1.77237 14.9653 2.72379 14.8847C7.39258 14.4889 12.0215 15.7148 16.5577 16.6166C21.2966 17.5587 26.2145 18.7544 31.0295 19.0411C31.8404 19.1301 33.2694 18.8831 34.0942 18.7433C33.2568 18.4273 32.3086 18.3682 31.5688 18.1317C30.0627 17.6502 27.2721 16.7685 26.2878 15.5405C25.7712 14.896 25.2667 13.2371 24.6445 12.5847C23.3692 11.2472 21.6585 10.2047 20.4839 8.79196C21.4529 9.26235 23.2245 10.2425 24.1037 10.8292C23.8093 9.76997 23.4019 9.10192 22.6939 8.26623C22.5327 8.07587 22.2964 7.7447 22.2746 7.49959L22.4047 7.43847C22.8599 7.76954 23.1023 7.93258 23.598 8.19577C23.9784 7.55171 23.9063 7.04008 24.2354 6.38199C24.4287 5.99565 24.9082 5.96836 25.1038 5.82592C27.1498 4.33614 29.2281 6.13452 30.0199 5.92388L30.0181 5.80644C29.6269 5.23064 27.5414 3.37709 26.9019 3.08013C25.6588 2.50292 23.8151 2.10245 22.4621 1.80269C21.5721 2.306 20.7124 2.84063 19.8301 3.37031C18.1398 4.38504 16.1622 5.2557 14.6926 6.58396C14.0766 7.14077 14.0483 7.79219 14.0755 8.55884C14.1104 9.54259 14.1404 10.5314 14.1745 11.5173C15.1169 11.9452 16.1693 12.1693 17.1711 12.5209C18.5631 13.0094 19.8823 13.4876 21.2962 13.9628C22.4292 14.3436 23.9873 14.6928 25.0533 15.2268C25.1862 15.2934 25.6695 16.2165 25.8007 16.4472C22.2936 15.8549 18.5878 14.7228 15.04 14.1589C13.8443 13.9689 12.656 13.7677 11.4702 13.5219C10.8807 13.3997 9.80453 13.4608 9.28208 13.1923L9.25129 13.052C9.55436 12.1757 10.7629 10.5299 11.344 9.65412C12.213 8.34407 12.9678 6.77371 14.0276 5.61689C14.796 4.77804 20.809 1.51215 22.1194 0.762908Z" fill="#2F8FF6"/>
<path d="M7.66405 16.9328C7.87397 16.9396 8.24933 17.0102 8.40176 17.1728C8.55006 18.2127 5.27881 27.1192 4.81823 28.9023C5.37712 29.5458 6.2322 29.9728 6.95662 30.4684C8.87811 31.783 10.8474 33.0484 12.7876 34.3366C14.4514 35.4413 16.3825 36.9989 18.0607 38.0099C20.7555 36.2574 26.8659 31.8299 29.784 29.7335C30.0899 29.5138 28.5694 24.2734 28.242 23.3181C25.4494 23.1944 21.9405 23.2944 19.1053 23.304C19.011 24.086 19.0349 24.9125 19.1135 25.695C20.3312 25.6837 22.6115 25.5666 23.7056 25.8835C23.7252 26.375 23.8245 26.8624 23.8467 27.3544C23.8627 27.7059 23.8193 28.1772 23.5681 28.448C22.9751 29.0872 19.6661 31.3772 18.9283 31.4009C18.4778 31.4154 12.1416 26.8591 11.5424 26.2909C11.8595 24.5297 13.7017 20.3221 14.4813 18.502C14.5318 18.3841 14.8514 18.1817 15.0701 18.1712C15.6861 18.472 15.4148 19.1938 15.2164 19.6552C15.0469 20.1585 14.7696 20.6256 14.6075 21.0909C14.0459 22.7029 13.3332 24.268 12.7847 25.8754C14.0405 27.0218 15.8749 27.9993 17.2456 29.0383C17.7761 29.4405 18.4127 29.8924 18.9688 30.2503C19.3616 30.0655 19.9484 29.7182 20.2767 29.4479C20.8308 28.9918 23.2048 27.7644 22.5932 26.9115C22.1622 26.6497 18.8506 26.7863 18.0415 26.7901C17.8964 26.0103 17.9442 23.131 18.0048 22.2894C19.1051 22.1791 20.914 22.232 22.0654 22.2334C24.4098 22.2422 26.7541 22.2386 29.0985 22.2227C29.611 23.8226 29.9639 25.2016 30.3368 26.8339C30.6041 28.0041 30.9786 28.9508 31.1394 30.1992C28.4026 32.1713 25.6457 34.1154 22.8693 36.0312C21.9281 36.6937 19.2132 38.706 18.2066 39.1862C17.5271 39.1478 11.5833 34.9011 10.4474 34.1424L6.43384 31.4737C5.76413 31.0298 4.20865 30.0393 3.68061 29.5006C3.6702 29.3967 3.6691 29.2921 3.67729 29.1881C3.80323 27.6634 5.37013 23.8161 5.85053 22.136C6.29318 20.588 6.92598 18.8239 7.40438 17.2672C7.43817 17.1572 7.57135 17.0109 7.66405 16.9328Z" fill="#3879F6"/>
</g>
<defs>
<clipPath id="clip0_73_9029">
<rect width="35.2" height="40" fill="white"/>
</clipPath>
</defs>
</svg>
